<svg width="32" height="32" viewBox="0 0 32 32" fill="none" xmlns="http://www.w3.org/2000/svg">
<g clip-path="url(#clip0_2_84)">
<path d="M7.99999 18.0001H24V21.0001H7.99999V18.0001ZM16 8L24 16.0001H8.00001L16 8ZM16 0.00296021C7.17529 0.00296021 0.00297546 7.17531 0.00297546 16.0001C0.00297546 24.8248 7.17529 31.9971 16 31.9971C24.8247 31.9971 31.997 24.8248 31.997 16.0001C31.997 7.17531 24.8247 0.00296021 16 0.00296021ZM16 1.99701C23.7438 1.99701 30.003 8.25616 30.003 16.0001C30.003 23.7439 23.7438 30.003 16 30.003C8.25617 30.003 1.99703 23.7439 1.99703 16.0001C1.99703 8.25616 8.25617 1.99701 16 1.99701Z" fill="black"/>
</g>
<defs>
<clipPath id="clip0_2_84">
<rect width="32" height="32" fill="white"/>
</clipPath>
</defs>
</svg>
