<svg width="100" height="100" viewBox="0 0 100 100" fill="none" xmlns="http://www.w3.org/2000/svg">
<path d="M35.4 56.2L20.9 75H79.1L60.4 50L45.9 68.7L35.4 56.2ZM87.5 79.1C87.5 81.3667 86.6667 83.3333 85 85C83.3333 86.6667 81.3667 87.5 79.1 87.5H20.9C18.6333 87.5 16.6667 86.6667 15 85C13.3333 83.3333 12.5 81.3667 12.5 79.1V20.9C12.5 18.6333 13.3333 16.6667 15 15C16.6667 13.3333 18.6333 12.5 20.9 12.5H79.1C81.3667 12.5 83.3333 13.3333 85 15C86.6667 16.6667 87.5 18.6333 87.5 20.9V79.1Z" fill="white"/>
</svg>
