<svg width="40" height="40" viewBox="0 0 40 40" fill="none" xmlns="http://www.w3.org/2000/svg">
<path d="M23.0925 15.1756L17.9684 20.0065L23.0925 24.8374C23.2147 24.9527 23.3117 25.0895 23.3779 25.2401C23.4441 25.3907 23.4781 25.5521 23.4781 25.7152C23.4781 25.8782 23.4441 26.0396 23.3779 26.1902C23.3117 26.3408 23.2147 26.4777 23.0925 26.5929C22.9702 26.7082 22.8251 26.7996 22.6653 26.862C22.5056 26.9244 22.3343 26.9565 22.1614 26.9565C21.9885 26.9565 21.8173 26.9244 21.6575 26.862C21.4978 26.7996 21.3526 26.7082 21.2304 26.5929L15.1687 20.8781C15.0463 20.7629 14.9491 20.6261 14.8829 20.4754C14.8166 20.3248 14.7825 20.1634 14.7825 20.0003C14.7825 19.8372 14.8166 19.6758 14.8829 19.5251C14.9491 19.3745 15.0463 19.2377 15.1687 19.1225L21.2304 13.4077C21.7454 12.9221 22.5774 12.9221 23.0925 13.4077C23.5943 13.8932 23.6075 14.6901 23.0925 15.1756Z" fill="#171621"/>
</svg>
