<svg width="16" height="16" viewBox="0 0 16 16" fill="none" xmlns="http://www.w3.org/2000/svg">
<path d="M8.00002 13.3333C8.73335 13.3333 9.33335 12.7333 9.33335 12V3.99996C9.33335 3.26663 8.73335 2.66663 8.00002 2.66663C7.26669 2.66663 6.66669 3.26663 6.66669 3.99996V12C6.66669 12.7333 7.26669 13.3333 8.00002 13.3333ZM4.00002 13.3333C4.73335 13.3333 5.33335 12.7333 5.33335 12V9.33329C5.33335 8.59996 4.73335 7.99996 4.00002 7.99996C3.26669 7.99996 2.66669 8.59996 2.66669 9.33329V12C2.66669 12.7333 3.26669 13.3333 4.00002 13.3333ZM10.6667 7.33329V12C10.6667 12.7333 11.2667 13.3333 12 13.3333C12.7334 13.3333 13.3334 12.7333 13.3334 12V7.33329C13.3334 6.59996 12.7334 5.99996 12 5.99996C11.2667 5.99996 10.6667 6.59996 10.6667 7.33329Z" fill="#FDFEFF"/>
</svg>
