<svg width="20" height="20" viewBox="0 0 20 20" fill="none" xmlns="http://www.w3.org/2000/svg">
<path opacity="0.2" fill-rule="evenodd" clip-rule="evenodd" d="M13.8498 0.500709C14.4808 0.500709 15.1108 0.589709 15.7098 0.790709C19.4008 1.99071 20.7308 6.04071 19.6198 9.5807C18.9898 11.3897 17.9598 13.0407 16.6108 14.3897C14.6798 16.2597 12.5608 17.9197 10.2798 19.3497L10.0298 19.5007L9.7698 19.3397C7.48077 17.9197 5.34977 16.2597 3.40077 14.3797C2.06077 13.0307 1.02977 11.3897 0.389772 9.5807C-0.740228 6.04071 0.589773 1.99071 4.32077 0.769709C4.61077 0.669709 4.90977 0.599709 5.20977 0.560709H5.32977C5.61077 0.519709 5.88977 0.500709 6.16977 0.500709H6.27977C6.90977 0.519709 7.51977 0.629709 8.1108 0.830709H8.1698C8.2098 0.849709 8.2398 0.870709 8.2598 0.889709C8.4808 0.960709 8.6898 1.04071 8.8898 1.15071L9.2698 1.32071C9.3616 1.36968 9.4647 1.44451 9.5537 1.50918C9.6102 1.55015 9.661 1.58705 9.6998 1.61071C9.7161 1.62034 9.7327 1.63002 9.7494 1.63978C9.8351 1.68983 9.9245 1.74197 9.9998 1.79971C11.1108 0.950709 12.4598 0.490709 13.8498 0.500709Z" fill="#F15C00"/>
</svg>
