<svg width="18" height="18" viewBox="0 0 18 18" fill="none" xmlns="http://www.w3.org/2000/svg">
<path fill-rule="evenodd" clip-rule="evenodd" d="M4.51736 3.67316C3.35088 4.20612 2.49658 5.47455 2.49658 6.98697C2.49658 8.53172 3.12939 9.72281 4.03502 10.7437C4.78244 11.5847 5.68666 12.2822 6.56838 12.9614C6.77791 13.1231 6.98603 13.2841 7.19064 13.4451C7.56049 13.7369 7.89025 13.9922 8.20877 14.1785C8.52658 14.3641 8.78252 14.4492 9.00049 14.4492C9.21846 14.4492 9.47439 14.3648 9.79221 14.1785C10.1107 13.9922 10.4405 13.7369 10.8103 13.4451C11.0142 13.2834 11.2231 13.1231 11.4326 12.9614C12.3143 12.2822 13.2185 11.5847 13.966 10.7437C14.8723 9.72281 15.5044 8.53172 15.5044 6.98697C15.5044 5.47526 14.6501 4.20612 13.4836 3.67316C12.4472 3.19996 11.086 3.27379 9.75424 4.43815L10.7794 5.4633C10.8298 5.51193 10.87 5.5701 10.8977 5.63442C10.9253 5.69874 10.9399 5.76794 10.9405 5.83795C10.9412 5.90797 10.9279 5.97742 10.9014 6.04224C10.8749 6.10706 10.8358 6.16596 10.7863 6.21549C10.7368 6.26503 10.6779 6.30421 10.6131 6.33076C10.5483 6.35731 10.4789 6.37068 10.4089 6.37011C10.3389 6.36953 10.2697 6.35502 10.2053 6.32741C10.141 6.2998 10.0828 6.25966 10.0341 6.20931L8.62783 4.80378L8.6208 4.79674C7.17377 3.29207 5.6508 3.15496 4.51736 3.67316ZM9.00049 3.69847C7.37486 2.24301 5.55447 2.03911 4.07861 2.7134C2.52189 3.42707 1.44189 5.08081 1.44189 6.98767C1.44189 8.86149 2.22236 10.2916 3.24682 11.4448C4.06666 12.3679 5.07002 13.1407 5.95666 13.8227C6.15775 13.9774 6.35252 14.1279 6.53744 14.2741C6.89814 14.5582 7.28486 14.8605 7.6765 15.0897C8.06814 15.3182 8.51533 15.5046 9.00049 15.5046C9.48564 15.5046 9.93283 15.3182 10.3245 15.0897C10.7168 14.8605 11.1028 14.5582 11.4635 14.2741C11.6561 14.1224 11.8497 13.9719 12.0443 13.8227C12.9303 13.1407 13.9343 12.3672 14.7542 11.4448C15.7786 10.2916 16.5591 8.86149 16.5591 6.98767C16.5591 5.08081 15.4798 3.42707 13.9224 2.7148C12.4465 2.03981 10.6261 2.24371 9.00049 3.69847Z" fill="#262626"/>
</svg>
