<svg width="24" height="24" viewBox="0 0 24 24" fill="none" xmlns="http://www.w3.org/2000/svg">
<path fill-rule="evenodd" clip-rule="evenodd" d="M3.59998 8.39995C3.59998 8.08169 3.7264 7.77647 3.95145 7.55142C4.17649 7.32638 4.48172 7.19995 4.79998 7.19995H19.2C19.5182 7.19995 19.8235 7.32638 20.0485 7.55142C20.2735 7.77647 20.4 8.08169 20.4 8.39995C20.4 8.71821 20.2735 9.02344 20.0485 9.24848C19.8235 9.47352 19.5182 9.59995 19.2 9.59995H4.79998C4.48172 9.59995 4.17649 9.47352 3.95145 9.24848C3.7264 9.02344 3.59998 8.71821 3.59998 8.39995ZM3.59998 15.5999C3.59998 15.2817 3.7264 14.9765 3.95145 14.7514C4.17649 14.5264 4.48172 14.4 4.79998 14.4H19.2C19.5182 14.4 19.8235 14.5264 20.0485 14.7514C20.2735 14.9765 20.4 15.2817 20.4 15.5999C20.4 15.9182 20.2735 16.2234 20.0485 16.4485C19.8235 16.6735 19.5182 16.7999 19.2 16.7999H4.79998C4.48172 16.7999 4.17649 16.6735 3.95145 16.4485C3.7264 16.2234 3.59998 15.9182 3.59998 15.5999Z" fill="#FDFEFF"/>
</svg>
