<svg width="32" height="32" viewBox="0 0 32 32" fill="none" xmlns="http://www.w3.org/2000/svg">
<g clip-path="url(#clip0_2_91)">
<path d="M16 0C7.17529 0 0 7.1753 0 16C0 24.8247 7.17529 32 16 32C24.8247 32 32 24.8247 32 16C32 7.1753 24.8247 0 16 0ZM16 2C23.7438 2 30 8.25615 30 16C30 23.7438 23.7438 30 16 30C8.25616 30 2 23.7438 2 16C2 8.25615 8.25616 2 16 2ZM16 8L11 13H8V19H11L16 24V8ZM19.3281 13L18 14.3281L19.6719 16L18 17.6718L19.3281 19L21 17.3281L22.6719 19L24 17.6718L22.3281 16L24 14.3281L22.6719 13L21 14.6718L19.3281 13Z" fill="black"/>
</g>
<defs>
<clipPath id="clip0_2_91">
<rect width="32" height="32" fill="white"/>
</clipPath>
</defs>
</svg>
