<svg width="41" height="41" viewBox="0 0 41 41" fill="none" xmlns="http://www.w3.org/2000/svg">
<path opacity="0.2" fill-rule="evenodd" clip-rule="evenodd" d="M17.8777 14.3786C17.8777 16.2452 16.3389 17.7582 14.4389 17.7582C12.54 17.7582 11 16.2452 11 14.3786C11 12.513 12.54 11 14.4389 11C16.3389 11 17.8777 12.513 17.8777 14.3786ZM29.4933 12.8983C30.3244 12.8983 31 13.562 31 14.3786C31 15.1962 30.3244 15.8599 29.4933 15.8599H22.9178C22.0856 15.8599 21.4101 15.1962 21.4101 14.3786C21.4101 13.562 22.0856 12.8983 22.9178 12.8983H29.4933ZM12.5078 23.958H19.0833C19.9155 23.958 20.5911 24.6217 20.5911 25.4393C20.5911 26.2558 19.9155 26.9206 19.0833 26.9206H12.5078C11.6755 26.9206 11 26.2558 11 25.4393C11 24.6217 11.6755 23.958 12.5078 23.958ZM27.5611 28.7778C29.4611 28.7778 31 27.2648 31 25.3992C31 23.5325 29.4611 22.0196 27.5611 22.0196C25.6623 22.0196 24.1223 23.5325 24.1223 25.3992C24.1223 27.2648 25.6623 28.7778 27.5611 28.7778Z" fill="#F15C00"/>
</svg>
