<svg width="18" height="18" viewBox="0 0 18 18" fill="none" xmlns="http://www.w3.org/2000/svg">
<path fill-rule="evenodd" clip-rule="evenodd" d="M12.1643 2.14465C11.8299 2.14454 11.4996 2.21779 11.1967 2.35924C10.8938 2.50068 10.6256 2.70688 10.411 2.96327C10.1964 3.21967 10.0407 3.52003 9.95492 3.84315C9.86909 4.16628 9.85521 4.5043 9.91426 4.83337L6.58848 7.16209C6.57184 7.17359 6.55588 7.18603 6.54066 7.19935C6.20326 6.9356 5.79853 6.77197 5.37262 6.72712C4.94671 6.68227 4.51677 6.75801 4.13183 6.94569C3.74688 7.13337 3.42243 7.42545 3.19546 7.78862C2.96849 8.15179 2.84814 8.57143 2.84814 8.99968C2.84814 9.42794 2.96849 9.84758 3.19546 10.2107C3.42243 10.5739 3.74688 10.866 4.13183 11.0537C4.51677 11.2414 4.94671 11.3171 5.37262 11.2722C5.79853 11.2274 6.20326 11.0638 6.54066 10.8C6.55586 10.8136 6.57182 10.8263 6.58848 10.838L9.91426 13.1667C9.81553 13.7171 9.92202 14.2845 10.2136 14.7617C10.5051 15.2388 10.9615 15.5925 11.4963 15.7557C12.0311 15.919 12.6072 15.8805 13.1155 15.6476C13.6238 15.4146 14.0291 15.0034 14.2546 14.4917C14.4801 13.9801 14.5102 13.4035 14.3391 12.8711C14.1681 12.3388 13.8078 11.8876 13.3264 11.6031C12.8451 11.3185 12.2761 11.2203 11.7272 11.3271C11.1784 11.4338 10.6877 11.7381 10.3481 12.1823L7.19879 9.97807C7.33941 9.68135 7.41816 9.35019 7.41816 9.00003C7.41816 8.64988 7.33941 8.31801 7.19879 8.022L10.3488 5.81703C10.5847 6.12589 10.8956 6.36945 11.2519 6.5247C11.6082 6.67995 11.9983 6.74175 12.3851 6.70425C12.772 6.66675 13.1429 6.53119 13.4628 6.3104C13.7827 6.08961 14.0409 5.79088 14.2132 5.44245C14.3854 5.09403 14.466 4.70743 14.4472 4.31921C14.4283 3.93099 14.3108 3.55399 14.1057 3.22384C13.9006 2.8937 13.6147 2.62133 13.2749 2.43249C12.9352 2.24365 12.5529 2.14458 12.1643 2.14465ZM10.9338 4.42978C10.9338 4.10344 11.0634 3.79047 11.2942 3.55972C11.5249 3.32896 11.8379 3.19933 12.1643 3.19933C12.4906 3.19933 12.8036 3.32896 13.0343 3.55972C13.2651 3.79047 13.3947 4.10344 13.3947 4.42978C13.3947 4.75612 13.2651 5.06909 13.0343 5.29984C12.8036 5.5306 12.4906 5.66023 12.1643 5.66023C11.8379 5.66023 11.5249 5.5306 11.2942 5.29984C11.0634 5.06909 10.9338 4.75612 10.9338 4.42978ZM5.13301 7.76958C4.80667 7.76958 4.49369 7.89922 4.26294 8.12997C4.03218 8.36073 3.90254 8.6737 3.90254 9.00003C3.90254 9.32637 4.03218 9.63934 4.26294 9.8701C4.49369 10.1009 4.80667 10.2305 5.13301 10.2305C5.45935 10.2305 5.77232 10.1009 6.00308 9.8701C6.23384 9.63934 6.36348 9.32637 6.36348 9.00003C6.36348 8.6737 6.23384 8.36073 6.00308 8.12997C5.77232 7.89922 5.45935 7.76958 5.13301 7.76958ZM12.1643 12.3398C11.8379 12.3398 11.5249 12.4695 11.2942 12.7002C11.0634 12.931 10.9338 13.244 10.9338 13.5703C10.9338 13.8966 11.0634 14.2096 11.2942 14.4403C11.5249 14.6711 11.8379 14.8007 12.1643 14.8007C12.4906 14.8007 12.8036 14.6711 13.0343 14.4403C13.2651 14.2096 13.3947 13.8966 13.3947 13.5703C13.3947 13.244 13.2651 12.931 13.0343 12.7002C12.8036 12.4695 12.4906 12.3398 12.1643 12.3398Z" fill="#262626"/>
</svg>
