<svg width="32" height="32" viewBox="0 0 32 32" fill="none" xmlns="http://www.w3.org/2000/svg">
<g clip-path="url(#clip0_2_79)">
<path d="M18 24V8H21V24H18ZM8 16L16 8V24L8 16ZM0.00294876 16C0.00294876 24.8247 7.1753 31.9971 16 31.9971C24.8247 31.9971 31.997 24.8247 31.997 16C31.997 7.1753 24.8247 0.00299072 16 0.00299072C7.1753 0.00299072 0.00294876 7.1753 0.00294876 16ZM1.99699 16C1.99699 8.25615 8.25615 1.99704 16 1.99704C23.7438 1.99704 30.003 8.25615 30.003 16C30.003 23.7439 23.7438 30.003 16 30.003C8.25615 30.003 1.99699 23.7439 1.99699 16Z" fill="black"/>
</g>
<defs>
<clipPath id="clip0_2_79">
<rect width="32" height="32" fill="white"/>
</clipPath>
</defs>
</svg>
