<svg width="32" height="32" viewBox="0 0 32 32" fill="none" xmlns="http://www.w3.org/2000/svg">
<g clip-path="url(#clip0_2_92)">
<path d="M16 0C7.17529 0 0 7.1753 0 16C0 24.8247 7.17529 32 16 32C24.8247 32 32 24.8247 32 16C32 7.1753 24.8247 0 16 0ZM16 2C23.7438 2 30 8.25615 30 16C30 23.7438 23.7438 30 16 30C8.25617 30 2 23.7438 2 16C2 8.25615 8.25617 2 16 2ZM16 8L11 13H8V19H11L16 24V8ZM20.3438 9.79684C20.1269 9.81601 19.9222 9.90545 19.7607 10.0515C19.5993 10.1976 19.4899 10.3924 19.4493 10.6063C19.4086 10.8202 19.4389 11.0415 19.5355 11.2367C19.632 11.4318 19.7897 11.5901 19.9844 11.6875C22.3861 13.0741 23.1991 16.0826 21.8125 18.4844C21.3736 19.2445 20.7445 19.8736 19.9844 20.3125C19.8695 20.3802 19.769 20.4699 19.6888 20.5764C19.6085 20.6829 19.5501 20.8043 19.5167 20.9334C19.4833 21.0625 19.4757 21.197 19.4943 21.329C19.5129 21.4611 19.5573 21.5882 19.625 21.7031C19.6927 21.818 19.7824 21.9185 19.8889 21.9987C19.9955 22.079 20.1168 22.1375 20.2459 22.1708C20.375 22.2042 20.5095 22.2118 20.6415 22.1932C20.7736 22.1747 20.9007 22.1302 21.0156 22.0625C22.0797 21.4481 22.9482 20.5797 23.5625 19.5156C25.4896 16.1778 24.3534 11.8645 21.0156 9.9375C20.8416 9.83305 20.64 9.78399 20.4375 9.79684C20.4063 9.79538 20.375 9.79538 20.3438 9.79684ZM19.0156 12.3906C18.9841 12.3943 18.9529 12.3994 18.9219 12.4061C18.7053 12.419 18.4989 12.5019 18.3336 12.6424C18.1683 12.7829 18.0532 12.9733 18.0056 13.1849C17.958 13.3965 17.9805 13.6179 18.0696 13.8156C18.1588 14.0133 18.3099 14.1767 18.5 14.2811C19.4668 14.8393 19.777 16.033 19.2188 16.9998C19.0432 17.3039 18.8041 17.543 18.5 17.7186C18.3851 17.7843 18.2842 17.8719 18.2032 17.9766C18.1222 18.0812 18.0625 18.2008 18.0277 18.3284C17.9929 18.4561 17.9836 18.5894 18.0003 18.7207C18.017 18.852 18.0593 18.9787 18.125 19.0936C18.1907 19.2085 18.2783 19.3093 18.3829 19.3904C18.4876 19.4714 18.6072 19.531 18.7348 19.5659C18.8625 19.6007 18.9958 19.61 19.1271 19.5933C19.2584 19.5766 19.3851 19.5343 19.5 19.4686C20.108 19.1176 20.6177 18.6079 20.9688 17.9999C22.0674 16.097 21.4029 13.6297 19.5 12.5311C19.3532 12.4436 19.1864 12.3953 19.0156 12.3906Z" fill="black"/>
</g>
<defs>
<clipPath id="clip0_2_92">
<rect width="32" height="32" fill="white"/>
</clipPath>
</defs>
</svg>
