<svg width="32" height="32" viewBox="0 0 32 32" fill="none" xmlns="http://www.w3.org/2000/svg">
<g clip-path="url(#clip0_2_90)">
<path d="M16 0C7.17529 0 0 7.1753 0 16C0 24.8247 7.17529 32 16 32C24.8247 32 32 24.8247 32 16C32 7.1753 24.8247 0 16 0ZM16 2C23.7438 2 30 8.25615 30 16C30 23.7438 23.7438 30 16 30C8.25617 30 2 23.7438 2 16C2 8.25615 8.25617 2 16 2ZM16 8L11 13H8V19H11L16 24V8ZM19.0156 12.3906C18.9842 12.3956 18.9529 12.3996 18.9219 12.4061C18.4926 12.4316 18.1 12.7654 18.0056 13.1849C17.9112 13.6045 18.123 14.0741 18.5 14.2811C19.4668 14.8393 19.777 16.033 19.2188 16.9998C19.0432 17.3039 18.8041 17.543 18.5 17.7186C18.0419 17.9804 17.8632 18.6355 18.125 19.0936C18.3868 19.5518 19.0419 19.7304 19.5 19.4686C20.108 19.1176 20.6177 18.6079 20.9688 17.9999C22.0674 16.097 21.4029 13.6297 19.5 12.5311C19.354 12.4441 19.1855 12.3953 19.0156 12.3906Z" fill="black"/>
</g>
<defs>
<clipPath id="clip0_2_90">
<rect width="32" height="32" fill="white"/>
</clipPath>
</defs>
</svg>
