<svg width="32" height="32" viewBox="0 0 32 32" fill="none" xmlns="http://www.w3.org/2000/svg">
<g clip-path="url(#clip0_2_85)">
<path d="M16 0C7.17529 0 0 7.1753 0 16C0 24.8247 7.17529 32 16 32C24.8247 32 32 24.8247 32 16C32 7.1753 24.8247 0 16 0ZM16 2C23.7438 2 30 8.25615 30 16C30 23.7438 23.7438 30 16 30C8.25617 30 2 23.7438 2 16C2 8.25615 8.25617 2 16 2ZM16 6C13.784 6 12 7.784 12 10V17C12 19.216 13.784 21 16 21C18.216 21 20 19.216 20 17V10C20 7.784 18.216 6 16 6ZM9.89062 13.9844C9.64208 14.0117 9.41279 14.1311 9.24793 14.3191C9.08308 14.5071 8.99462 14.75 9 15V17C9 20.5206 11.6124 23.4346 15 23.9219V26C15 26.554 15.446 27 16 27C16.554 27 17 26.554 17 26V23.9219C20.3876 23.4346 23 20.5206 23 17V15C23.0019 14.8675 22.9774 14.7359 22.928 14.613C22.8786 14.49 22.8052 14.3781 22.7122 14.2837C22.6191 14.1893 22.5082 14.1144 22.386 14.0632C22.2637 14.0121 22.1325 13.9858 22 13.9858C21.8675 13.9858 21.7363 14.0121 21.614 14.0632C21.4918 14.1144 21.3809 14.1893 21.2878 14.2837C21.1948 14.3781 21.1214 14.49 21.072 14.613C21.0226 14.7359 20.9981 14.8675 21 15V17C21 19.7873 18.7873 22 16 22C13.2127 22 11 19.7873 11 17V15C11.0031 14.8576 10.9757 14.7163 10.9197 14.5853C10.8638 14.4544 10.7805 14.337 10.6755 14.2408C10.5704 14.1447 10.4461 14.072 10.3107 14.0278C10.1754 13.9836 10.0322 13.9688 9.89062 13.9844Z" fill="black"/>
</g>
<defs>
<clipPath id="clip0_2_85">
<rect width="32" height="32" fill="white"/>
</clipPath>
</defs>
</svg>
