<svg width="32" height="32" viewBox="0 0 32 32" fill="none" xmlns="http://www.w3.org/2000/svg">
<g clip-path="url(#clip0_2_93)">
<path d="M13.9999 8V24H10.9999V8H13.9999ZM24 16L15.9999 24V8L24 16ZM31.997 16C31.997 7.1753 24.8247 0.00299072 15.9999 0.00299072C7.17524 0.00299072 0.00294495 7.1753 0.00294495 16C0.00294495 24.8247 7.17524 31.997 15.9999 31.997C24.8247 31.997 31.997 24.8247 31.997 16ZM30.003 16C30.003 23.7439 23.7438 30.003 15.9999 30.003C8.25614 30.003 1.99699 23.7439 1.99699 16C1.99699 8.25615 8.25614 1.99704 15.9999 1.99704C23.7438 1.99704 30.003 8.25615 30.003 16Z" fill="black"/>
</g>
<defs>
<clipPath id="clip0_2_93">
<rect width="32" height="32" fill="white"/>
</clipPath>
</defs>
</svg>
