<svg width="32" height="32" viewBox="0 0 32 32" fill="none" xmlns="http://www.w3.org/2000/svg">
<g clip-path="url(#clip0_2_86)">
<path d="M16 0C24.8247 0 32 7.1753 32 16C32 24.8247 24.8247 32 16 32C7.17529 32 0 24.8247 0 16C0 7.1753 7.17529 0 16 0ZM16 2C8.25617 2 2 8.25615 2 16C2 23.7438 8.25617 30 16 30C23.7438 30 30 23.7438 30 16C30 8.25615 23.7438 2 16 2ZM21 10V22L13 16L21 10ZM13 16V22H11V10H13V16Z" fill="black"/>
</g>
<defs>
<clipPath id="clip0_2_86">
<rect width="32" height="32" fill="white"/>
</clipPath>
</defs>
</svg>
