<svg width="32" height="32" viewBox="0 0 32 32" fill="none" xmlns="http://www.w3.org/2000/svg">
<g clip-path="url(#clip0_2_89)">
<path d="M16 0.00296021C7.17529 0.00296021 0.00297546 7.17531 0.00297546 16.0001C0.00297546 24.8248 7.17529 31.9971 16 31.9971C24.8247 31.9971 31.997 24.8248 31.997 16.0001C31.997 7.17531 24.8247 0.00296021 16 0.00296021ZM16 1.99701C23.7438 1.99701 30.003 8.25616 30.003 16.0001C30.003 23.7439 23.7438 30.003 16 30.003C8.25617 30.003 1.99703 23.7439 1.99703 16.0001C1.99703 8.25616 8.25617 1.99701 16 1.99701ZM23 16.0001C23 19.8661 19.866 23.0001 16 23.0001C12.134 23.0001 9 19.8661 9 16.0001C9 12.1341 12.134 9 16 9C19.866 9 23 12.1341 23 16.0001Z" fill="black"/>
</g>
<defs>
<clipPath id="clip0_2_89">
<rect width="32" height="32" fill="white"/>
</clipPath>
</defs>
</svg>
