<svg width="32" height="32" viewBox="0 0 32 32" fill="none" xmlns="http://www.w3.org/2000/svg">
<g clip-path="url(#clip0_2_78)">
<path d="M16 0C7.17529 0 0 7.1753 0 16C0 24.8247 7.17529 32 16 32C24.8247 32 32 24.8247 32 16C32 7.1753 24.8247 0 16 0ZM16 2C23.7438 2 30 8.25615 30 16C30 23.7438 23.7438 30 16 30C8.25617 30 2 23.7438 2 16C2 8.25615 8.25617 2 16 2ZM15 10L7 16L15 22V16V10ZM15 16L23 22V10L15 16Z" fill="black"/>
</g>
<defs>
<clipPath id="clip0_2_78">
<rect width="32" height="32" fill="white"/>
</clipPath>
</defs>
</svg>
